<svg width="64" height="64" viewBox="0 0 64 64" fill="none" xmlns="http://www.w3.org/2000/svg">
<g clip-path="url(#clip0_2052_21)">
<path d="M55.265 27.6475L52 26.5575V14C52 12.9391 51.5786 11.9217 50.8284 11.1716C50.0783 10.4214 49.0609 10 48 10H34V6C34 5.46957 33.7893 4.96086 33.4142 4.58579C33.0391 4.21071 32.5304 4 32 4C31.4696 4 30.9609 4.21071 30.5858 4.58579C30.2107 4.96086 30 5.46957 30 6V10H16C14.9391 10 13.9217 10.4214 13.1716 11.1716C12.4214 11.9217 12 12.9391 12 14V26.5575L8.735 27.6475C7.93852 27.913 7.24579 28.4224 6.75492 29.1035C6.26405 29.7846 5.99994 30.6029 6 31.4425V38C6 53.385 30.4725 59.68 31.515 59.94C31.8334 60.0196 32.1666 60.0196 32.485 59.94C33.5275 59.68 58 53.385 58 38V31.4425C58.0001 30.6029 57.736 29.7846 57.2451 29.1035C56.7542 28.4224 56.0615 27.913 55.265 27.6475ZM16 14H48V25.225L32.6325 20.1025C32.2219 19.9656 31.7781 19.9656 31.3675 20.1025L16 25.225V14ZM54 38C54 44.2275 48.08 48.75 43.1125 51.4575C39.5756 53.3343 35.8509 54.8334 32 55.93C28.1723 54.8449 24.4694 53.3601 20.9525 51.5C11.9 46.5875 10 41.4475 10 38V31.4425L30 24.775V42C30 42.5304 30.2107 43.0391 30.5858 43.4142C30.9609 43.7893 31.4696 44 32 44C32.5304 44 33.0391 43.7893 33.4142 43.4142C33.7893 43.0391 34 42.5304 34 42V24.775L54 31.4425V38Z" fill="#19B4F0"/>
</g>
<defs>
<clipPath id="clip0_2052_21">
<rect width="64" height="64" fill="white"/>
</clipPath>
</defs>
</svg>
