<svg width="64" height="64" viewBox="0 0 64 64" fill="none" xmlns="http://www.w3.org/2000/svg">
<path d="M32 6C26.8577 6 21.8309 7.52487 17.5552 10.3818C13.2795 13.2387 9.94702 17.2994 7.97914 22.0502C6.01127 26.8011 5.49638 32.0288 6.49959 37.0723C7.50281 42.1159 9.97907 46.7486 13.6152 50.3848C17.2514 54.0209 21.8842 56.4972 26.9277 57.5004C31.9712 58.5036 37.1989 57.9887 41.9498 56.0209C46.7007 54.053 50.7613 50.7205 53.6182 46.4448C56.4751 42.1691 58 37.1423 58 32C57.9927 25.1066 55.2511 18.4976 50.3767 13.6233C45.5024 8.74889 38.8934 6.00728 32 6ZM32 10C36.2624 9.99547 40.4333 11.2363 44 13.57V18.5L38.4575 24.935L30.59 26L30.5125 25.945L25.595 22.73C25.159 22.4229 24.666 22.2061 24.145 22.0923C23.624 21.9785 23.0855 21.97 22.5612 22.0674C22.0369 22.1647 21.5373 22.366 21.0919 22.6592C20.6465 22.9525 20.2642 23.3318 19.9675 23.775L14.7325 31.6C14.2964 32.2521 14.0617 33.018 14.0575 33.8025L14 42.86L13.1825 43.3975C11.1615 40.0608 10.0641 36.2468 10.0027 32.3463C9.94129 28.4459 10.9181 24.5992 12.833 21.2006C14.7479 17.8019 17.5321 14.9736 20.9002 13.0054C24.2682 11.0372 28.099 9.99999 32 10ZM15.5725 46.6175L16.2025 46.205C16.7526 45.8421 17.2046 45.3489 17.5182 44.7693C17.8318 44.1897 17.9973 43.5415 18 42.8825L18.0525 33.825L23.2925 26C23.3182 26.0198 23.3449 26.0381 23.3725 26.055L28.29 29.2725C29.1141 29.8541 30.1281 30.1016 31.1275 29.965L39 28.8975C39.9708 28.7679 40.8604 28.2867 41.5 27.545L47.0425 21.105C47.6623 20.3788 48.002 19.4548 48 18.5V16.9175C50.7052 19.7795 52.5912 23.316 53.4607 27.157C54.3303 30.9979 54.1513 35.002 52.9425 38.75L48.9075 35.06C48.3466 34.5451 47.6503 34.201 46.9006 34.0682C46.1508 33.9353 45.3787 34.0192 44.675 34.31L37.06 37.4725C36.4233 37.7398 35.8661 38.1665 35.4422 38.7117C35.0184 39.2569 34.7421 39.902 34.64 40.585L34.0425 44.6325C33.8989 45.6067 34.1197 46.5997 34.6626 47.4212C35.2056 48.2428 36.0325 48.8352 36.985 49.085L42.35 50.5L42.94 51.0925C38.559 53.6061 33.4457 54.5335 28.461 53.7184C23.4763 52.9034 18.9247 50.3956 15.5725 46.6175ZM46.25 48.75L45.175 47.6725C44.6736 47.1692 44.0471 46.8085 43.36 46.6275L38 45.2125L38.5975 41.165L46.21 38L51.25 42.62C49.9654 44.9473 48.2717 47.0239 46.25 48.75Z" fill="#19B4F0"/>
</svg>
