<svg width="64" height="64" viewBox="0 0 64 64" fill="none" xmlns="http://www.w3.org/2000/svg">
<path d="M32 6C26.8577 6 21.8309 7.52487 17.5552 10.3818C13.2795 13.2387 9.94702 17.2994 7.97914 22.0502C6.01127 26.8011 5.49638 32.0288 6.49959 37.0723C7.50281 42.1159 9.97907 46.7486 13.6152 50.3848C17.2514 54.0209 21.8842 56.4972 26.9277 57.5004C31.9712 58.5036 37.1989 57.9887 41.9498 56.0209C46.7007 54.053 50.7613 50.7205 53.6182 46.4448C56.4751 42.1691 58 37.1423 58 32C57.9927 25.1066 55.2511 18.4976 50.3767 13.6233C45.5024 8.74889 38.8934 6.00728 32 6ZM32 54C27.6488 54 23.3953 52.7097 19.7775 50.2923C16.1596 47.8749 13.3398 44.439 11.6747 40.419C10.0095 36.3991 9.57386 31.9756 10.4227 27.708C11.2716 23.4404 13.3669 19.5204 16.4437 16.4437C19.5204 13.3669 23.4404 11.2716 27.708 10.4227C31.9756 9.57385 36.3991 10.0095 40.419 11.6747C44.439 13.3398 47.875 16.1596 50.2923 19.7775C52.7097 23.3953 54 27.6488 54 32C53.9934 37.8327 51.6734 43.4247 47.5491 47.549C43.4247 51.6734 37.8327 53.9934 32 54ZM36 44C36 44.5304 35.7893 45.0391 35.4142 45.4142C35.0392 45.7893 34.5304 46 34 46C32.9391 46 31.9217 45.5786 31.1716 44.8284C30.4214 44.0783 30 43.0609 30 42V32C29.4696 32 28.9609 31.7893 28.5858 31.4142C28.2107 31.0391 28 30.5304 28 30C28 29.4696 28.2107 28.9609 28.5858 28.5858C28.9609 28.2107 29.4696 28 30 28C31.0609 28 32.0783 28.4214 32.8284 29.1716C33.5786 29.9217 34 30.9391 34 32V42C34.5304 42 35.0392 42.2107 35.4142 42.5858C35.7893 42.9609 36 43.4696 36 44ZM28 21C28 20.4067 28.176 19.8266 28.5056 19.3333C28.8352 18.8399 29.3038 18.4554 29.852 18.2284C30.4001 18.0013 31.0033 17.9419 31.5853 18.0576C32.1672 18.1734 32.7018 18.4591 33.1213 18.8787C33.5409 19.2982 33.8266 19.8328 33.9424 20.4147C34.0581 20.9967 33.9987 21.5999 33.7716 22.1481C33.5446 22.6962 33.1601 23.1648 32.6667 23.4944C32.1734 23.8241 31.5934 24 31 24C30.2044 24 29.4413 23.6839 28.8787 23.1213C28.3161 22.5587 28 21.7956 28 21Z" fill="#19B4F0"/>
</svg>
