<svg width="64" height="64" viewBox="0 0 64 64" fill="none" xmlns="http://www.w3.org/2000/svg">
<path d="M55.92 16.5375L33.92 4.50004C33.3322 4.17525 32.6716 4.00488 32 4.00488C31.3284 4.00488 30.6678 4.17525 30.08 4.50004L8.08 16.5425C7.45172 16.8863 6.92726 17.3924 6.56138 18.0081C6.1955 18.6238 6.00163 19.3264 6 20.0425V43.9525C6.00163 44.6687 6.1955 45.3713 6.56138 45.987C6.92726 46.6026 7.45172 47.1088 8.08 47.4525L30.08 59.495C30.6678 59.8198 31.3284 59.9902 32 59.9902C32.6716 59.9902 33.3322 59.8198 33.92 59.495L55.92 47.4525C56.5483 47.1088 57.0727 46.6026 57.4386 45.987C57.8045 45.3713 57.9984 44.6687 58 43.9525V20.045C57.9997 19.3276 57.8065 18.6234 57.4405 18.0063C57.0746 17.3892 56.5494 16.8819 55.92 16.5375ZM32 8.00004L52.085 19L44.6425 23.075L24.555 12.075L32 8.00004ZM32 30L11.915 19L20.39 14.36L40.475 25.36L32 30ZM10 22.5L30 33.445V54.8925L10 43.955V22.5ZM54 43.945L34 54.8925V33.455L42 29.0775V38C42 38.5305 42.2107 39.0392 42.5858 39.4143C42.9609 39.7893 43.4696 40 44 40C44.5304 40 45.0391 39.7893 45.4142 39.4143C45.7893 39.0392 46 38.5305 46 38V26.8875L54 22.5V43.9425V43.945Z" fill="#19B4F0"/>
</svg>
